# xmcd
#
# Track frame offsets:
#  150
#  21437
#  39275
#  57750
#  79062
#  105262
#  126575
#  146187
#  170175
#  186812
#
# Disc length: 2772 seconds
#
# Revision: 0
# Processed by: cddbd v1.5.1PL2 Copyright (c) Steve Scherf et al.
# Submitted via: Collectorz.com_Music_Collector 6.9
#
DISCID=8a0ad20a
DTITLE=群星 - 關懷
DYEAR=1900
DGENRE=國語
TTITLE0=關懷
TTITLE1=給我一份關心的愛
TTITLE2=愛使我們更生動
TTITLE3=你冷不冷
TTITLE4=關懷（兒童版）
TTITLE5=你冷不冷
TTITLE6=將世界的心擁在一起
TTITLE7=我想有個家
TTITLE8=愛使我們更生動（演奏版）
TTITLE9=關懷（伴奏版）
EXTD=
EXTT0=
EXTT1=
EXTT2=
EXTT3=
EXTT4=
EXTT5=
EXTT6=
EXTT7=
EXTT8=
EXTT9=
PLAYORDER=
